<svg version="1.1" id="Layer_1" xmlns="http://www.w3.org/2000/svg" xmlns:xlink="http://www.w3.org/1999/xlink" x="0px" y="0px"
	 width="100%" viewBox="0 0 389 96" enable-background="new 0 0 389 96" xml:space="preserve">
<path fill="#FFFFFF" opacity="1.000000" stroke="none" 
	d="
M256.000000,97.000000 
	C170.666687,97.000000 85.833374,97.000000 1.000046,97.000000 
	C1.000030,65.000031 1.000030,33.000057 1.000015,1.000063 
	C130.666611,1.000042 260.333221,1.000042 389.999878,1.000021 
	C389.999908,32.999935 389.999908,64.999870 389.999939,96.999901 
	C345.500000,97.000000 301.000000,97.000000 256.000000,97.000000 
M90.097130,65.162720 
	C90.975212,60.051071 92.310265,54.904736 88.195084,50.388481 
	C87.800240,49.955158 88.155449,48.838383 88.844917,47.517189 
	C88.897408,38.705875 88.837814,29.891878 89.048691,21.084356 
	C89.157463,16.541502 87.220604,14.920056 82.770927,14.943398 
	C60.317223,15.061174 37.862095,15.074000 15.408628,14.935618 
	C10.679733,14.906474 8.895395,16.674267 8.935094,21.406240 
	C9.088576,39.701069 8.985764,57.997955 9.004107,76.294052 
	C9.009970,82.139549 9.836800,82.977554 15.604089,82.995789 
	C31.071802,83.044701 46.539619,83.060455 61.956791,83.825775 
	C62.095242,85.979568 62.233692,88.133369 63.074806,90.874794 
	C72.883499,90.918167 82.694321,90.857124 92.499825,91.056847 
	C96.366592,91.135605 97.764168,89.742645 96.656044,85.335258 
	C93.445435,82.172928 90.234833,79.010590 87.046532,75.107376 
	C87.976860,72.046989 88.907188,68.986603 90.097130,65.162720 
M119.963005,47.642895 
	C120.965141,50.000038 121.631393,52.599682 123.093445,54.624783 
	C123.992638,55.870274 126.083885,56.744308 127.685989,56.820908 
	C128.751053,56.871834 130.298859,55.440186 130.930542,54.288265 
	C132.662506,51.129902 134.024704,47.768768 136.135330,43.178535 
	C136.135330,50.655506 136.135330,56.803677 136.135330,62.662178 
	C139.071823,62.662178 141.479156,62.662178 143.684845,62.662178 
	C143.684845,52.920898 143.684845,43.519604 143.684845,34.000050 
	C141.882416,34.000050 140.346436,34.242317 138.915710,33.956947 
	C133.520370,32.880791 131.396057,35.985813 129.952667,40.419456 
	C129.214890,42.685707 127.961594,44.784134 126.673218,47.529709 
	C120.246788,32.714603 120.246788,32.714603 110.270096,34.571236 
	C110.270096,43.985432 110.270096,53.387573 110.270096,62.729836 
	C112.953682,62.729836 115.356110,62.729836 118.133804,62.729836 
	C118.133804,56.814285 118.133804,51.158356 118.133804,44.700832 
	C118.895859,45.984364 119.195457,46.488976 119.963005,47.642895 
M285.000031,59.337585 
	C285.120636,60.555748 285.241241,61.773911 285.341278,62.784378 
	C288.109222,62.784378 290.382538,62.784378 292.802368,62.784378 
	C292.802368,53.174438 292.802368,43.780552 292.802368,34.000050 
	C290.828491,34.000050 288.977478,34.311924 287.275360,33.940895 
	C282.397980,32.877743 280.665039,36.095661 279.109589,39.597870 
	C278.027405,42.034428 277.105316,44.542072 275.740845,47.942120 
	C273.857544,43.169567 273.351379,38.383541 270.696747,36.142456 
	C268.028503,33.889923 263.221375,34.170998 259.297485,33.330212 
	C259.297485,44.059887 259.297485,53.457745 259.297485,62.700981 
	C262.006378,62.700981 264.410828,62.700981 267.190063,62.700981 
	C267.190063,56.774590 267.190063,51.138790 267.190063,44.194702 
	C269.167206,48.623936 270.280609,51.988605 272.139618,54.872696 
	C272.930450,56.099628 275.254669,56.730011 276.934418,56.841370 
	C277.901917,56.905510 279.373749,55.600182 279.925079,54.547932 
	C281.655487,51.245293 283.057159,47.770397 285.000000,43.439728 
	C285.000000,49.114960 285.000000,53.745491 285.000031,59.337585 
M341.996368,42.509769 
	C340.998016,45.355145 339.003815,48.269695 339.195740,51.032394 
	C339.690735,58.158573 341.017456,63.933750 350.691467,62.962357 
	C352.435608,62.787224 354.162598,61.669052 355.840851,61.787621 
	C358.463104,61.972881 361.037018,62.842480 363.713501,63.440487 
	C363.713501,52.648384 363.713501,42.908554 363.713501,33.279346 
	C361.006287,33.279346 358.590454,33.279346 356.012451,33.279346 
	C356.012451,36.198074 356.012451,38.839203 356.012451,41.787182 
	C351.354950,39.717838 346.893463,38.695786 341.996368,42.509769 
M227.997437,56.681423 
	C227.043716,52.685848 224.792770,55.713722 223.583847,56.162704 
	C217.974594,58.245926 214.018982,57.306721 212.427460,52.832325 
	C217.978790,52.832325 223.431870,52.832325 228.826691,52.832325 
	C230.106522,45.884563 223.938477,38.872139 215.983734,39.848198 
	C209.764450,40.611309 206.500534,42.203876 204.690201,47.797676 
	C202.933029,53.227192 204.198532,59.670063 209.195160,61.249359 
	C214.247360,62.846214 220.194687,61.816311 225.722534,61.483185 
	C226.557755,61.432854 227.244385,58.916340 227.997437,56.681423 
M148.992279,46.809818 
	C148.787964,49.508102 147.820419,52.429604 148.531265,54.860241 
	C150.241745,60.708771 153.325653,63.803986 163.581360,63.041374 
	C168.207764,62.697353 172.373718,59.552887 172.994247,55.406185 
	C174.126556,47.839622 171.423462,41.583523 166.388092,40.116749 
	C159.844696,38.210701 153.539886,40.345135 148.992279,46.809818 
M249.497589,58.000935 
	C251.600067,52.435623 253.702545,46.870312 255.872864,41.125404 
	C247.521347,40.879051 247.521347,40.879051 243.430603,54.242786 
	C242.395569,51.625923 241.454849,49.443115 240.662506,47.207714 
	C238.235733,40.361164 237.491730,39.954247 230.194611,41.716110 
	C233.401306,49.484821 236.612000,57.263271 239.839981,65.083580 
	C233.779739,67.154556 233.779739,67.154556 234.566864,71.792984 
	C243.083557,72.029747 243.463364,74.064232 247.110565,63.579636 
	C247.688431,61.918453 248.392014,60.301018 249.497589,58.000935 
M184.999969,58.411346 
	C185.000137,55.745872 184.486526,52.937099 185.176300,50.463959 
	C185.657440,48.738937 187.787598,47.473843 189.181168,46.003315 
	C190.120773,47.397099 191.743622,48.731628 191.870605,50.195881 
	C192.236877,54.419254 191.999985,58.694935 191.999985,62.834480 
	C194.979538,62.834480 197.271942,62.834480 199.996658,62.834480 
	C199.996658,57.394077 200.406967,52.065155 199.861649,46.835884 
	C199.454605,42.932549 197.265900,39.671329 192.481354,40.022861 
	C187.467407,40.391251 182.466766,40.940765 177.324768,41.423847 
	C177.324768,48.488422 177.324768,55.700897 177.324768,62.852196 
	C179.944183,62.852196 182.237686,62.852196 184.999954,62.852196 
	C184.999954,61.594032 184.999954,60.479424 184.999969,58.411346 
M313.000000,45.643398 
	C313.000000,51.406860 313.000000,57.170319 313.000000,62.664078 
	C316.067078,62.664078 318.477173,62.664078 321.000519,62.664078 
	C321.000519,58.341068 320.595581,54.291096 321.193359,50.394970 
	C321.443726,48.763062 323.820435,47.457394 325.230377,46.003391 
	C326.153595,47.413464 327.740204,48.764069 327.872955,50.245003 
	C328.239960,54.339199 327.999969,58.487808 327.999969,62.801674 
	C330.783722,62.801674 333.187500,62.801674 335.996124,62.801674 
	C335.996124,57.352852 336.410065,52.020100 335.860168,46.788654 
	C335.448456,42.872086 333.210358,39.658222 328.434265,40.020470 
	C323.426605,40.400272 318.431213,40.942173 313.000031,41.453777 
	C313.000031,42.430782 313.000031,43.557625 313.000000,45.643398 
M384.829437,49.297112 
	C381.850708,48.760166 378.872009,48.223217 375.893280,47.686272 
	C375.985107,47.095013 376.076935,46.503757 376.168793,45.912498 
	C380.039459,46.220512 383.910126,46.528530 387.886902,46.844986 
	C387.886902,44.843571 387.886902,43.214626 387.886902,40.621975 
	C383.201294,40.415337 378.468994,39.699524 373.891632,40.256638 
	C372.083679,40.476685 369.754730,43.302284 369.211975,45.351685 
	C368.473175,48.141460 368.055878,51.851147 372.389221,52.985222 
	C375.497131,53.798592 378.619415,54.557175 381.735291,55.340202 
	C381.701965,55.686699 381.668640,56.033192 381.635315,56.379688 
	C377.575562,56.379688 373.515778,56.379688 369.232819,56.379688 
	C369.232819,57.955387 369.232819,59.721508 369.232819,62.359852 
	C373.881042,62.570877 378.609222,63.260216 383.214783,62.778053 
	C385.267181,62.563183 388.242432,60.290791 388.723541,58.418869 
	C389.497467,55.407509 390.271973,51.236317 384.829437,49.297112 
M299.000000,47.577927 
	C299.000000,52.645332 299.000000,57.712742 299.000000,62.757130 
	C301.924103,62.757130 304.315918,62.757130 306.644897,62.757130 
	C306.644897,55.357487 306.644897,48.206589 306.644897,41.340057 
	C303.893311,41.340057 301.502411,41.340057 299.000000,41.340057 
	C299.000000,43.321510 299.000000,44.963505 299.000000,47.577927 
M306.940063,37.355339 
	C306.940063,35.960178 306.940063,34.565018 306.940063,33.252396 
	C303.993591,33.252396 301.605499,33.252396 299.222778,33.252396 
	C299.222778,34.899651 299.222778,36.291428 299.222778,37.951202 
	C301.702942,37.951202 303.965637,37.951202 306.940063,37.355339 
z"/>
<path fill="#34C482" opacity="1.000000" stroke="none" 
	d="
M62.007401,83.089378 
	C46.539619,83.060455 31.071802,83.044701 15.604089,82.995789 
	C9.836800,82.977554 9.009970,82.139549 9.004107,76.294052 
	C8.985764,57.997955 9.088576,39.701069 8.935094,21.406240 
	C8.895395,16.674267 10.679733,14.906474 15.408628,14.935618 
	C37.862095,15.074000 60.317223,15.061174 82.770927,14.943398 
	C87.220604,14.920056 89.157463,16.541502 89.048691,21.084356 
	C88.837814,29.891878 88.897408,38.705875 88.349800,47.486832 
	C87.234123,47.352318 86.613556,47.248158 85.712997,47.054237 
	C85.247398,46.901340 85.061806,46.838203 84.899971,46.321579 
	C84.923737,40.394238 84.923737,34.920383 84.923737,31.791702 
	C80.229309,26.995451 76.845757,23.538513 72.577072,19.177238 
	C57.352600,19.177238 40.408146,19.177238 23.259331,19.177238 
	C22.334743,25.040070 18.700895,28.252855 13.178671,29.387362 
	C13.178671,42.641209 13.178671,55.591080 13.178671,68.737350 
	C19.048683,69.661308 22.253237,73.301582 23.442307,79.095795 
	C37.821568,79.095795 51.953033,79.095795 65.918877,79.368668 
	C64.504639,80.790825 63.256016,81.940102 62.007401,83.089378 
z"/>
<path fill="#000000" opacity="1.000000" stroke="none" 
	d="
M119.729027,47.318237 
	C119.195457,46.488976 118.895859,45.984364 118.133804,44.700832 
	C118.133804,51.158356 118.133804,56.814285 118.133804,62.729836 
	C115.356110,62.729836 112.953682,62.729836 110.270096,62.729836 
	C110.270096,53.387573 110.270096,43.985432 110.270096,34.571236 
	C120.246788,32.714603 120.246788,32.714603 126.673218,47.529709 
	C127.961594,44.784134 129.214890,42.685707 129.952667,40.419456 
	C131.396057,35.985813 133.520370,32.880791 138.915710,33.956947 
	C140.346436,34.242317 141.882416,34.000050 143.684845,34.000050 
	C143.684845,43.519604 143.684845,52.920898 143.684845,62.662178 
	C141.479156,62.662178 139.071823,62.662178 136.135330,62.662178 
	C136.135330,56.803677 136.135330,50.655506 136.135330,43.178535 
	C134.024704,47.768768 132.662506,51.129902 130.930542,54.288265 
	C130.298859,55.440186 128.751053,56.871834 127.685989,56.820908 
	C126.083885,56.744308 123.992638,55.870274 123.093445,54.624783 
	C121.631393,52.599682 120.965141,50.000038 119.729027,47.318237 
z"/>
<path fill="#000000" opacity="1.000000" stroke="none" 
	d="
M285.000000,58.856804 
	C285.000000,53.745491 285.000000,49.114960 285.000000,43.439728 
	C283.057159,47.770397 281.655487,51.245293 279.925079,54.547932 
	C279.373749,55.600182 277.901917,56.905510 276.934418,56.841370 
	C275.254669,56.730011 272.930450,56.099628 272.139618,54.872696 
	C270.280609,51.988605 269.167206,48.623936 267.190063,44.194702 
	C267.190063,51.138790 267.190063,56.774590 267.190063,62.700981 
	C264.410828,62.700981 262.006378,62.700981 259.297485,62.700981 
	C259.297485,53.457745 259.297485,44.059887 259.297485,33.330212 
	C263.221375,34.170998 268.028503,33.889923 270.696747,36.142456 
	C273.351379,38.383541 273.857544,43.169567 275.740845,47.942120 
	C277.105316,44.542072 278.027405,42.034428 279.109589,39.597870 
	C280.665039,36.095661 282.397980,32.877743 287.275360,33.940895 
	C288.977478,34.311924 290.828491,34.000050 292.802368,34.000050 
	C292.802368,43.780552 292.802368,53.174438 292.802368,62.784378 
	C290.382538,62.784378 288.109222,62.784378 285.341278,62.784378 
	C285.241241,61.773911 285.120636,60.555748 285.000000,58.856804 
z"/>
<path fill="#000000" opacity="1.000000" stroke="none" 
	d="
M342.289673,42.228870 
	C346.893463,38.695786 351.354950,39.717838 356.012451,41.787182 
	C356.012451,38.839203 356.012451,36.198074 356.012451,33.279346 
	C358.590454,33.279346 361.006287,33.279346 363.713501,33.279346 
	C363.713501,42.908554 363.713501,52.648384 363.713501,63.440487 
	C361.037018,62.842480 358.463104,61.972881 355.840851,61.787621 
	C354.162598,61.669052 352.435608,62.787224 350.691467,62.962357 
	C341.017456,63.933750 339.690735,58.158573 339.195740,51.032394 
	C339.003815,48.269695 340.998016,45.355145 342.289673,42.228870 
M348.022858,55.026917 
	C349.586609,57.992962 352.751343,57.922070 353.992401,56.093433 
	C355.319092,54.138607 355.206421,50.828739 354.788574,48.262333 
	C354.631012,47.294533 351.877533,46.291893 350.270508,46.227604 
	C349.561066,46.199223 348.453339,48.383831 348.084930,49.717987 
	C347.704193,51.096794 348.001160,52.662739 348.022858,55.026917 
z"/>
<path fill="#000000" opacity="1.000000" stroke="none" 
	d="
M227.998596,57.111008 
	C227.244385,58.916340 226.557755,61.432854 225.722534,61.483185 
	C220.194687,61.816311 214.247360,62.846214 209.195160,61.249359 
	C204.198532,59.670063 202.933029,53.227192 204.690201,47.797676 
	C206.500534,42.203876 209.764450,40.611309 215.983734,39.848198 
	C223.938477,38.872139 230.106522,45.884563 228.826691,52.832325 
	C223.431870,52.832325 217.978790,52.832325 212.427460,52.832325 
	C214.018982,57.306721 217.974594,58.245926 223.583847,56.162704 
	C224.792770,55.713722 227.043716,52.685848 227.998596,57.111008 
z"/>
<path fill="#000000" opacity="1.000000" stroke="none" 
	d="
M149.004028,46.403900 
	C153.539886,40.345135 159.844696,38.210701 166.388092,40.116749 
	C171.423462,41.583523 174.126556,47.839622 172.994247,55.406185 
	C172.373718,59.552887 168.207764,62.697353 163.581360,63.041374 
	C153.325653,63.803986 150.241745,60.708771 148.531265,54.860241 
	C147.820419,52.429604 148.787964,49.508102 149.004028,46.403900 
M163.960602,47.639149 
	C162.067200,47.203991 160.173798,46.768833 158.280396,46.333675 
	C157.853912,48.811001 157.155579,51.285339 157.128326,53.767044 
	C157.116653,54.831017 158.372299,56.652348 159.280151,56.809124 
	C160.649277,57.045570 163.254333,56.443726 163.503860,55.634109 
	C164.191666,53.402481 163.929199,50.877987 163.960602,47.639149 
z"/>
<path fill="#000000" opacity="1.000000" stroke="none" 
	d="
M249.267532,58.332146 
	C248.392014,60.301018 247.688431,61.918453 247.110565,63.579636 
	C243.463364,74.064232 243.083557,72.029747 234.566864,71.792984 
	C233.779739,67.154556 233.779739,67.154556 239.839981,65.083580 
	C236.612000,57.263271 233.401306,49.484821 230.194611,41.716110 
	C237.491730,39.954247 238.235733,40.361164 240.662506,47.207714 
	C241.454849,49.443115 242.395569,51.625923 243.430603,54.242786 
	C247.521347,40.879051 247.521347,40.879051 255.872864,41.125404 
	C253.702545,46.870312 251.600067,52.435623 249.267532,58.332146 
z"/>
<path fill="#000000" opacity="1.000000" stroke="none" 
	d="
M184.999969,58.888081 
	C184.999954,60.479424 184.999954,61.594032 184.999954,62.852196 
	C182.237686,62.852196 179.944183,62.852196 177.324768,62.852196 
	C177.324768,55.700897 177.324768,48.488422 177.324768,41.423847 
	C182.466766,40.940765 187.467407,40.391251 192.481354,40.022861 
	C197.265900,39.671329 199.454605,42.932549 199.861649,46.835884 
	C200.406967,52.065155 199.996658,57.394077 199.996658,62.834480 
	C197.271942,62.834480 194.979538,62.834480 191.999985,62.834480 
	C191.999985,58.694935 192.236877,54.419254 191.870605,50.195881 
	C191.743622,48.731628 190.120773,47.397099 189.181168,46.003311 
	C187.787598,47.473843 185.657440,48.738937 185.176300,50.463959 
	C184.486526,52.937099 185.000137,55.745872 184.999969,58.888081 
z"/>
<path fill="#000000" opacity="1.000000" stroke="none" 
	d="
M313.000000,45.163933 
	C313.000031,43.557625 313.000031,42.430782 313.000031,41.453777 
	C318.431213,40.942173 323.426605,40.400272 328.434265,40.020470 
	C333.210358,39.658222 335.448456,42.872086 335.860168,46.788654 
	C336.410065,52.020100 335.996124,57.352852 335.996124,62.801674 
	C333.187500,62.801674 330.783722,62.801674 327.999969,62.801674 
	C327.999969,58.487808 328.239960,54.339199 327.872955,50.245003 
	C327.740204,48.764069 326.153595,47.413464 325.230377,46.003395 
	C323.820435,47.457394 321.443726,48.763062 321.193359,50.394970 
	C320.595581,54.291096 321.000519,58.341068 321.000519,62.664078 
	C318.477173,62.664078 316.067078,62.664078 313.000000,62.664078 
	C313.000000,57.170319 313.000000,51.406860 313.000000,45.163933 
z"/>
<path fill="#000000" opacity="1.000000" stroke="none" 
	d="
M385.121002,49.600113 
	C390.271973,51.236317 389.497467,55.407509 388.723541,58.418869 
	C388.242432,60.290791 385.267181,62.563183 383.214783,62.778053 
	C378.609222,63.260216 373.881042,62.570877 369.232819,62.359852 
	C369.232819,59.721508 369.232819,57.955387 369.232819,56.379688 
	C373.515778,56.379688 377.575562,56.379688 381.635315,56.379688 
	C381.668640,56.033192 381.701965,55.686699 381.735291,55.340202 
	C378.619415,54.557175 375.497131,53.798592 372.389221,52.985222 
	C368.055878,51.851147 368.473175,48.141460 369.211975,45.351685 
	C369.754730,43.302284 372.083679,40.476685 373.891632,40.256638 
	C378.468994,39.699524 383.201294,40.415337 387.886902,40.621975 
	C387.886902,43.214626 387.886902,44.843571 387.886902,46.844986 
	C383.910126,46.528530 380.039459,46.220512 376.168793,45.912498 
	C376.076935,46.503757 375.985107,47.095013 375.893280,47.686272 
	C378.872009,48.223217 381.850708,48.760166 385.121002,49.600113 
z"/>
<path fill="#066FC1" opacity="1.000000" stroke="none" 
	d="
M61.982094,83.457581 
	C63.256016,81.940102 64.504639,80.790825 66.261169,79.273041 
	C68.775719,78.138412 70.782349,77.372292 72.839844,76.725166 
	C72.890701,76.844154 73.095505,77.002388 73.057724,77.373077 
	C73.595627,81.522522 76.241737,83.136887 79.586594,82.822495 
	C83.295364,82.473892 85.274323,79.945610 85.451157,76.027008 
	C86.186356,75.949211 86.605293,75.898735 87.024223,75.848267 
	C90.234833,79.010590 93.445435,82.172928 96.255020,85.671310 
	C88.525398,86.686104 81.181793,87.236984 73.874329,88.095535 
	C70.007805,88.549820 66.204170,89.539299 62.372143,90.287163 
	C62.233692,88.133369 62.095242,85.979568 61.982094,83.457581 
z"/>
<path fill="#000000" opacity="1.000000" stroke="none" 
	d="
M299.000000,47.091713 
	C299.000000,44.963505 299.000000,43.321510 299.000000,41.340057 
	C301.502411,41.340057 303.893311,41.340057 306.644897,41.340057 
	C306.644897,48.206589 306.644897,55.357487 306.644897,62.757130 
	C304.315918,62.757130 301.924103,62.757130 299.000000,62.757130 
	C299.000000,57.712742 299.000000,52.645332 299.000000,47.091713 
z"/>
<path fill="#0466B7" opacity="1.000000" stroke="none" 
	d="
M62.723473,90.580978 
	C66.204170,89.539299 70.007805,88.549820 73.874329,88.095535 
	C81.181793,87.236984 88.525398,86.686104 96.266136,86.006348 
	C97.764168,89.742645 96.366592,91.135605 92.499825,91.056847 
	C82.694321,90.857124 72.883499,90.918167 62.723473,90.580978 
z"/>
<path fill="#EFB528" opacity="1.000000" stroke="none" 
	d="
M87.035378,75.477821 
	C86.605293,75.898735 86.186356,75.949211 85.091431,76.145401 
	C80.642128,76.528206 76.868813,76.765297 73.095505,77.002388 
	C73.095505,77.002388 72.890701,76.844154 72.838882,76.413559 
	C70.888275,73.031342 68.989471,70.079704 67.389938,67.067413 
	C68.095573,66.986359 68.501938,66.965965 69.221588,67.102608 
	C71.345848,69.129837 72.847809,71.564507 75.028946,72.758514 
	C80.388771,75.692635 84.819305,73.352539 89.275116,65.943161 
	C89.462601,65.938202 89.837517,65.926216 89.837517,65.926216 
	C88.907188,68.986603 87.976860,72.046989 87.035378,75.477821 
z"/>
<path fill="#BA611F" opacity="1.000000" stroke="none" 
	d="
M89.967323,65.544464 
	C89.837517,65.926216 89.462601,65.938202 89.224106,65.543640 
	C87.661667,61.741638 86.337738,58.334209 85.010864,54.527935 
	C85.336288,51.800728 85.664642,49.472366 85.992996,47.143997 
	C86.613556,47.248158 87.234123,47.352318 88.008575,47.747681 
	C88.155449,48.838383 87.800240,49.955158 88.195084,50.388481 
	C92.310265,54.904736 90.975212,60.051071 89.967323,65.544464 
z"/>
<path fill="#000000" opacity="1.000000" stroke="none" 
	d="
M306.584229,37.653271 
	C303.965637,37.951202 301.702942,37.951202 299.222778,37.951202 
	C299.222778,36.291428 299.222778,34.899651 299.222778,33.252396 
	C301.605499,33.252396 303.993591,33.252396 306.940063,33.252396 
	C306.940063,34.565018 306.940063,35.960178 306.584229,37.653271 
z"/>
<path fill="#C7F4DF" opacity="1.000000" stroke="none" 
	d="
M67.090675,67.128075 
	C68.989471,70.079704 70.888275,73.031342 72.788025,76.294571 
	C70.782349,77.372292 68.775719,78.138412 66.426788,79.000168 
	C51.953033,79.095795 37.821568,79.095795 23.442307,79.095795 
	C22.253237,73.301582 19.048683,69.661308 13.178671,68.737350 
	C13.178671,55.591080 13.178671,42.641209 13.178671,29.387362 
	C18.700895,28.252855 22.334743,25.040070 23.259331,19.177238 
	C40.408146,19.177238 57.352600,19.177238 72.577072,19.177238 
	C76.845757,23.538513 80.229309,26.995451 84.923737,31.791702 
	C84.923737,34.920383 84.923737,40.394238 84.461555,46.374699 
	C81.040184,46.938919 78.080994,46.996532 75.095779,46.630699 
	C74.385841,44.523140 74.138329,42.158585 72.888435,41.356998 
	C71.764259,40.636036 69.117279,41.099140 67.937164,42.038712 
	C67.020493,42.768528 66.576324,45.789619 67.250237,46.462818 
	C68.615318,47.826466 70.881104,48.288475 72.595787,49.399437 
	C65.381630,51.962395 67.164482,57.799641 66.617020,62.910282 
	C54.827179,62.955307 43.512600,62.897762 32.202557,63.097404 
	C30.570656,63.126213 28.960581,64.391449 27.340405,65.084503 
	C29.017206,65.721237 30.685398,66.882431 32.372196,66.910110 
	C43.849113,67.098495 55.329952,67.048119 66.881706,67.078156 
	C66.953888,67.081482 67.090675,67.128075 67.090675,67.128075 
M53.419247,35.563797 
	C54.152290,35.016045 55.567062,34.319420 55.486259,33.949390 
	C55.272587,32.970924 54.592663,31.877283 53.769169,31.294909 
	C52.137836,30.141237 50.284870,29.300964 48.912281,28.545202 
	C47.501240,29.618330 46.214108,30.831120 44.722717,31.688671 
	C39.766098,34.538723 39.580566,40.285751 44.502132,43.245506 
	C46.051304,44.177151 47.978760,44.527454 49.421124,45.573845 
	C50.564335,46.403206 51.231079,47.889343 52.109386,49.083855 
	C50.676338,49.645813 49.234749,50.681759 47.812283,50.656132 
	C45.792469,50.619747 43.786724,49.802151 41.774967,49.318359 
	C41.430515,49.743599 41.086063,50.168839 40.741611,50.594082 
	C41.963005,51.809975 43.099655,53.129566 44.427784,54.214844 
	C45.997509,55.497543 47.732624,56.577847 49.045502,57.499741 
	C50.356121,56.414623 51.897953,55.459503 53.007687,54.140762 
	C54.513184,52.351707 56.687473,50.302372 56.723267,48.331062 
	C56.759079,46.358837 54.736298,44.146305 53.186771,42.425518 
	C52.279938,41.418461 50.368397,41.387558 49.209381,40.517265 
	C47.891636,39.527779 46.909050,38.091946 45.780777,36.850132 
	C47.427929,36.204613 49.050194,35.478306 50.736172,34.958801 
	C51.301697,34.784538 52.029583,35.137207 53.419247,35.563797 
M53.478863,71.003166 
	C47.159473,71.006294 40.837982,70.928154 34.522720,71.091125 
	C33.447731,71.118866 32.399410,72.180107 31.338768,72.763885 
	C32.408577,73.505211 33.390526,74.496857 34.574657,74.912491 
	C35.611984,75.276604 36.876362,74.996689 38.040447,74.996391 
	C46.521744,74.994194 55.004078,75.052559 63.483032,74.910088 
	C64.551750,74.892136 65.602684,73.816017 66.661858,73.230164 
	C65.590248,72.490616 64.572182,71.229538 63.436615,71.112968 
	C60.474163,70.808838 57.460251,71.005959 53.478863,71.003166 
M30.467777,47.870026 
	C30.641409,47.076336 31.105946,46.209236 30.928051,45.504250 
	C30.558924,44.041416 30.187458,41.859119 29.198580,41.443340 
	C27.754904,40.836346 25.222563,40.906075 24.167150,41.836391 
	C23.150663,42.732399 22.785334,45.289192 23.251671,46.762524 
	C24.389565,50.357574 27.368813,48.925922 30.467777,47.870026 
z"/>
<path fill="#BF661A" opacity="1.000000" stroke="none" 
	d="
M67.093735,62.890270 
	C67.164482,57.799641 65.381630,51.962395 72.874870,49.244659 
	C73.929733,48.226494 74.525764,47.640320 75.121803,47.054146 
	C78.080994,46.996532 81.040184,46.938919 84.437790,46.828186 
	C85.061806,46.838203 85.247398,46.901340 85.712997,47.054237 
	C85.664642,49.472366 85.336288,51.800728 84.546921,54.548222 
	C69.722244,55.103001 69.722244,55.103001 68.908310,66.945564 
	C68.501938,66.965965 68.095573,66.986359 67.389938,67.067413 
	C67.090675,67.128075 66.953888,67.081482 66.948181,66.766052 
	C66.992897,65.263832 67.043320,64.077049 67.093735,62.890270 
z"/>
<path fill="#FFFFFF" opacity="1.000000" stroke="none" 
	d="
M348.012268,54.586868 
	C348.001160,52.662739 347.704193,51.096794 348.084930,49.717987 
	C348.453339,48.383831 349.561066,46.199223 350.270508,46.227604 
	C351.877533,46.291893 354.631012,47.294533 354.788574,48.262333 
	C355.206421,50.828739 355.319092,54.138607 353.992401,56.093433 
	C352.751343,57.922070 349.586609,57.992962 348.012268,54.586868 
z"/>
<path fill="#FFFFFF" opacity="1.000000" stroke="none" 
	d="
M164.001587,48.054237 
	C163.929199,50.877987 164.191666,53.402481 163.503860,55.634109 
	C163.254333,56.443726 160.649277,57.045570 159.280151,56.809124 
	C158.372299,56.652348 157.116653,54.831017 157.128326,53.767044 
	C157.155579,51.285339 157.853912,48.811001 158.280396,46.333675 
	C160.173798,46.768833 162.067200,47.203991 164.001587,48.054237 
z"/>
<path fill="#CE9F28" opacity="1.000000" stroke="none" 
	d="
M73.057724,77.373077 
	C76.868813,76.765297 80.642128,76.528206 84.775162,76.172722 
	C85.274323,79.945610 83.295364,82.473892 79.586594,82.822495 
	C76.241737,83.136887 73.595627,81.522522 73.057724,77.373077 
z"/>
<path fill="#F6C039" opacity="1.000000" stroke="none" 
	d="
M69.221588,67.102608 
	C69.722244,55.103001 69.722244,55.103001 84.549850,54.947063 
	C86.337738,58.334209 87.661667,61.741638 89.036613,65.548592 
	C84.819305,73.352539 80.388771,75.692635 75.028946,72.758514 
	C72.847809,71.564507 71.345848,69.129837 69.221588,67.102608 
M83.405907,67.931732 
	C85.244736,64.059242 84.386818,60.266624 81.182434,59.294598 
	C78.005798,58.330997 74.872246,58.930000 73.947205,62.508228 
	C73.494942,64.257660 74.050270,66.954987 75.218010,68.285614 
	C77.326782,70.688522 80.253777,70.398758 83.405907,67.931732 
z"/>
<path fill="#1C844D" opacity="1.000000" stroke="none" 
	d="
M53.051250,35.406410 
	C52.029583,35.137207 51.301697,34.784538 50.736172,34.958801 
	C49.050194,35.478306 47.427929,36.204613 45.780777,36.850132 
	C46.909050,38.091946 47.891636,39.527779 49.209381,40.517265 
	C50.368397,41.387558 52.279938,41.418461 53.186771,42.425518 
	C54.736298,44.146305 56.759079,46.358837 56.723267,48.331062 
	C56.687473,50.302372 54.513184,52.351707 53.007687,54.140762 
	C51.897953,55.459503 50.356121,56.414623 49.045502,57.499741 
	C47.732624,56.577847 45.997509,55.497543 44.427784,54.214844 
	C43.099655,53.129566 41.963005,51.809975 40.741611,50.594082 
	C41.086063,50.168839 41.430515,49.743599 41.774967,49.318359 
	C43.786724,49.802151 45.792469,50.619747 47.812283,50.656132 
	C49.234749,50.681759 50.676338,49.645813 52.109386,49.083855 
	C51.231079,47.889343 50.564335,46.403206 49.421124,45.573845 
	C47.978760,44.527454 46.051304,44.177151 44.502132,43.245506 
	C39.580566,40.285751 39.766098,34.538723 44.722717,31.688671 
	C46.214108,30.831120 47.501240,29.618330 48.912281,28.545202 
	C50.284870,29.300964 52.137836,30.141237 53.769169,31.294909 
	C54.592663,31.877283 55.272587,32.970924 55.486259,33.949390 
	C55.567062,34.319420 54.152290,35.016045 53.051250,35.406410 
z"/>
<path fill="#62E2A6" opacity="1.000000" stroke="none" 
	d="
M66.617020,62.910282 
	C67.043320,64.077049 66.992897,65.263832 66.875999,66.762726 
	C55.329952,67.048119 43.849113,67.098495 32.372196,66.910110 
	C30.685398,66.882431 29.017206,65.721237 27.340405,65.084503 
	C28.960581,64.391449 30.570656,63.126213 32.202557,63.097404 
	C43.512600,62.897762 54.827179,62.955307 66.617020,62.910282 
z"/>
<path fill="#62E3A7" opacity="1.000000" stroke="none" 
	d="
M53.972862,71.003174 
	C57.460251,71.005959 60.474163,70.808838 63.436615,71.112968 
	C64.572182,71.229538 65.590248,72.490616 66.661858,73.230164 
	C65.602684,73.816017 64.551750,74.892136 63.483032,74.910088 
	C55.004078,75.052559 46.521744,74.994194 38.040447,74.996391 
	C36.876362,74.996689 35.611984,75.276604 34.574657,74.912491 
	C33.390526,74.496857 32.408577,73.505211 31.338768,72.763885 
	C32.399410,72.180107 33.447731,71.118866 34.522720,71.091125 
	C40.837982,70.928154 47.159473,71.006294 53.972862,71.003174 
z"/>
<path fill="#63E2A6" opacity="1.000000" stroke="none" 
	d="
M75.095779,46.630699 
	C74.525764,47.640320 73.929733,48.226494 73.054619,48.967445 
	C70.881104,48.288475 68.615318,47.826466 67.250237,46.462818 
	C66.576324,45.789619 67.020493,42.768528 67.937164,42.038712 
	C69.117279,41.099140 71.764259,40.636036 72.888435,41.356998 
	C74.138329,42.158585 74.385841,44.523140 75.095779,46.630699 
z"/>
<path fill="#62E3A8" opacity="1.000000" stroke="none" 
	d="
M30.166801,48.171043 
	C27.368813,48.925922 24.389565,50.357574 23.251671,46.762524 
	C22.785334,45.289192 23.150663,42.732399 24.167150,41.836391 
	C25.222563,40.906075 27.754904,40.836346 29.198580,41.443340 
	C30.187458,41.859119 30.558924,44.041416 30.928051,45.504250 
	C31.105946,46.209236 30.641409,47.076336 30.166801,48.171043 
z"/>
<path fill="#FCCA4A" opacity="1.000000" stroke="none" 
	d="
M83.133575,68.197792 
	C80.253777,70.398758 77.326782,70.688522 75.218010,68.285614 
	C74.050270,66.954987 73.494942,64.257660 73.947205,62.508228 
	C74.872246,58.930000 78.005798,58.330997 81.182434,59.294598 
	C84.386818,60.266624 85.244736,64.059242 83.133575,68.197792 
z"/>
</svg>